<svg xmlns="http://www.w3.org/2000/svg" xmlns:xlink="http://www.w3.org/1999/xlink" width="0" height="0" style="position:absolute">
	
		<symbol id="icon-bold" viewBox="0 0 24 24">
			<path d="M15.6 10.79c.97-.67 1.65-1.77 1.65-2.79 0-2.26-1.75-4-4-4H7v14h7.04c2.09 0 3.71-1.7 3.71-3.79 0-1.52-.86-2.82-2.15-3.42zM10 6.5h3c.83 0 1.5.67 1.5 1.5s-.67 1.5-1.5 1.5h-3v-3zm3.5 9H10v-3h3.5c.83 0 1.5.67 1.5 1.5s-.67 1.5-1.5 1.5z"></path>
		</symbol>
	
		<symbol id="icon-code" viewBox="0 0 24 24">
			<path d="M19 12h-2v3h-3v2h5v-5zM7 9h3V7H5v5h2V9zm14-6H3c-1.1 0-2 .9-2 2v14c0 1.1.9 2 2 2h18c1.1 0 2-.9 2-2V5c0-1.1-.9-2-2-2zm0 16.01H3V4.99h18v14.02z"></path>
		</symbol>
	
		<symbol id="icon-fontSize" viewBox="0 0 24 24">
			<path d="M9 4v3h5v12h3V7h5V4H9zm-6 8h3v7h3v-7h3V9H3v3z"></path>
		</symbol>
	
		<symbol id="icon-h1" viewBox="0 0 24 24">
			<path d="M20.1 4.3c-2.2.2-2.4.3-2.4 2.5v10.4c0 2.2.2 2.4 2.4 2.5v.8h-7.4v-.8c2.3-.2 2.5-.3 2.5-2.5v-5.1H6v5.1c0 2.2.2 2.4 2.4 2.5v.8H1.2v-.8c2.1-.2 2.3-.3 2.3-2.5V6.8c0-2.2-.2-2.3-2.4-2.5v-.8h7.2v.8C6.2 4.5 6 4.6 6 6.8v4.1h9.2V6.8c0-2.2-.2-2.3-2.3-2.5v-.8h7.2v.8zM22.2 20.5v-2.1h-.5v-.6h1.1v2.7h-.6z"></path>
		</symbol>
	
		<symbol id="icon-h2" viewBox="0 0 24 24">
			<path d="M19.6 4.3c-2.2.2-2.4.3-2.4 2.5v10.4c0 2.2.2 2.4 2.4 2.5v.8h-7.4v-.8c2.3-.2 2.5-.3 2.5-2.5v-5.1H5.6v5.1c0 2.2.2 2.4 2.4 2.5v.8H.7v-.8c2.1-.2 2.3-.3 2.3-2.5V6.8C3 4.6 2.8 4.5.6 4.3v-.8h7.2v.8c-2 .2-2.2.3-2.2 2.5v4.1h9.2V6.8c0-2.2-.2-2.3-2.3-2.5v-.8h7.2v.8zM21.4 20.5V20c.1-.1.2-.1.3-.3l.3-.3.2-.2.2-.2c.1-.2.2-.3.2-.4 0-.2-.1-.3-.3-.3-.1 0-.2 0-.2.1-.1.1-.1.2-.1.3h-.6c0-.3.1-.5.3-.7.2-.2.4-.2.7-.2s.5.1.7.2c.2.2.2.4.2.6 0 .2 0 .3-.1.5 0 .1-.1.1-.1.2s-.1.1-.2.2l-.2.2-.2.2c-.1.1-.2.1-.2.2h1v.5h-1.9z"></path>
		</symbol>
	
		<symbol id="icon-image" viewBox="0 0 24 24">
			<path d="M21 19V5c0-1.1-.9-2-2-2H5c-1.1 0-2 .9-2 2v14c0 1.1.9 2 2 2h14c1.1 0 2-.9 2-2zM8.5 13.5l2.5 3.01L14.5 12l4.5 6H5l3.5-4.5z"></path>
		</symbol>
	
		<symbol id="icon-indent" viewBox="0 0 24 24">
			<path d="M3 21h18v-2H3v2zM3 8v8l4-4-4-4zm8 9h10v-2H11v2zM3 3v2h18V3H3zm8 6h10V7H11v2zm0 4h10v-2H11v2z"></path>
		</symbol>
	
		<symbol id="icon-italic" viewBox="0 0 24 24">
			<path d="M10 4v3h2.21l-3.42 8H6v3h8v-3h-2.21l3.42-8H18V4z"></path>
		</symbol>
	
		<symbol id="icon-justifyCenter" viewBox="0 0 24 24">
			<path d="M7 15v2h10v-2H7zm-4 6h18v-2H3v2zm0-8h18v-2H3v2zm4-6v2h10V7H7zM3 3v2h18V3H3z"></path>
		</symbol>
	
		<symbol id="icon-justifyFull" viewBox="0 0 24 24">
			<path d="M3 21h18v-2H3v2zm0-4h18v-2H3v2zm0-4h18v-2H3v2zm0-4h18V7H3v2zm0-6v2h18V3H3z"></path>
		</symbol>
	
		<symbol id="icon-justifyLeft" viewBox="0 0 24 24">
			<path d="M15 15H3v2h12v-2zm0-8H3v2h12V7zM3 13h18v-2H3v2zm0 8h18v-2H3v2zM3 3v2h18V3H3z"></path>
		</symbol>
	
		<symbol id="icon-justifyRight" viewBox="0 0 24 24">
			<path d="M3 21h18v-2H3v2zm6-4h12v-2H9v2zm-6-4h18v-2H3v2zm6-4h12V7H9v2zM3 3v2h18V3H3z"></path>
		</symbol>
	
		<symbol id="icon-paragraph" viewBox="0 0 24 24">
			<path d="M12.4 2.5c2.1 0 3.9.3 5.1 1.2 1.2.9 2 2.2 2 4.2 0 3.8-2.9 5.7-5.8 6-.5.1-1.1.1-1.4 0l-2.3-.6v4.5c0 2.5.3 2.7 3 2.9v.8H4.6v-.8c2.4-.2 2.6-.4 2.6-2.9V6.3c0-2.6-.3-2.7-2.5-2.9v-.9h7.7zM10 12.3c.4.1 1.2.4 2.1.4 1.9 0 4.2-1 4.2-4.7 0-3.2-2-4.5-4.4-4.5-.8 0-1.4.2-1.6.4-.2.1-.3.5-.3 1.3v7.1z"></path>
		</symbol>
	
		<symbol id="icon-quote" viewBox="0 0 24 24">
			<path d="M6 17h3l2-4V7H5v6h3zm8 0h3l2-4V7h-6v6h3z"></path>
		</symbol>
	
		<symbol id="icon-script" viewBox="0 0 24 24">
			<path d="M14 2H6c-1.1 0-1.99.9-1.99 2L4 20c0 1.1.89 2 1.99 2H18c1.1 0 2-.9 2-2V8l-6-6zm2 16H8v-2h8v2zm0-4H8v-2h8v2zm-3-5V3.5L18.5 9H13z"></path>
		</symbol>
	
		<symbol id="icon-strikeThrough" viewBox="0 0 24 24">
			<path d="M7.24 8.75c-.26-.48-.39-1.03-.39-1.67 0-.61.13-1.16.4-1.67.26-.5.63-.93 1.11-1.29a5.73 5.73 0 0 1 1.7-.83c.66-.19 1.39-.29 2.18-.29.81 0 1.54.11 2.21.34.66.22 1.23.54 1.69.94.47.4.83.88 1.08 1.43.25.55.38 1.15.38 1.81h-3.01c0-.31-.05-.59-.15-.85-.09-.27-.24-.49-.44-.68-.2-.19-.45-.33-.75-.44-.3-.1-.66-.16-1.06-.16-.39 0-.74.04-1.03.13-.29.09-.53.21-.72.36-.19.16-.34.34-.44.55-.1.21-.15.43-.15.66 0 .48.25.88.74 1.21.38.25.77.48 1.41.7H7.39c-.05-.08-.11-.17-.15-.25zM21 12v-2H3v2h9.62c.18.07.4.14.55.2.37.17.66.34.87.51.21.17.35.36.43.57.07.2.11.43.11.69 0 .23-.05.45-.14.66-.09.2-.23.38-.42.53-.19.15-.42.26-.71.35-.29.08-.63.13-1.01.13-.43 0-.83-.04-1.18-.13s-.66-.23-.91-.42c-.25-.19-.45-.44-.59-.75-.14-.31-.25-.76-.25-1.21H6.4c0 .55.08 1.13.24 1.58.16.45.37.85.65 1.21.28.35.6.66.98.92.37.26.78.48 1.22.65.44.17.9.3 1.38.39.48.08.96.13 1.44.13.8 0 1.53-.09 2.18-.28s1.21-.45 1.67-.79c.46-.34.82-.77 1.07-1.27s.38-1.07.38-1.71c0-.6-.1-1.14-.31-1.61-.05-.11-.11-.23-.17-.33H21z"></path>
		</symbol>
	
		<symbol id="icon-text" viewBox="0 0 24 24">
			<path d="M5 17v2h14v-2H5zm4.5-4.2h5l.9 2.2h2.1L12.75 4h-1.5L6.5 15h2.1l.9-2.2zM12 5.98L13.87 11h-3.74L12 5.98z"></path>
		</symbol>
	
		<symbol id="icon-underline" viewBox="0 0 24 24">
			<path d="M12 17c3.31 0 6-2.69 6-6V3h-2.5v8c0 1.93-1.57 3.5-3.5 3.5S8.5 12.93 8.5 11V3H6v8c0 3.31 2.69 6 6 6zm-7 2v2h14v-2H5z"></path>
		</symbol>
	
</svg>
