<svg xmlns="http://www.w3.org/2000/svg" xmlns:xlink="http://www.w3.org/1999/xlink" width="0" height="0" style="position:absolute">
	
		<symbol id="icon-bold" viewBox="0 0 24 24">
			<path d="M15.6 10.79c.97-.67 1.65-1.77 1.65-2.79 0-2.26-1.75-4-4-4H7v14h7.04c2.09 0 3.71-1.7 3.71-3.79 0-1.52-.86-2.82-2.15-3.42zM10 6.5h3c.83 0 1.5.67 1.5 1.5s-.67 1.5-1.5 1.5h-3v-3zm3.5 9H10v-3h3.5c.83 0 1.5.67 1.5 1.5s-.67 1.5-1.5 1.5z"></path>
		</symbol>
	
		<symbol id="icon-fontSize" viewBox="0 0 24 24">
			<path d="M9 4v3h5v12h3V7h5V4H9zm-6 8h3v7h3v-7h3V9H3v3z"></path>
		</symbol>
	
		<symbol id="icon-image" viewBox="0 0 24 24">
			<path d="M21 19V5c0-1.1-.9-2-2-2H5c-1.1 0-2 .9-2 2v14c0 1.1.9 2 2 2h14c1.1 0 2-.9 2-2zM8.5 13.5l2.5 3.01L14.5 12l4.5 6H5l3.5-4.5z"></path>
		</symbol>
	
		<symbol id="icon-italic" viewBox="0 0 24 24">
			<path d="M10 4v3h2.21l-3.42 8H6v3h8v-3h-2.21l3.42-8H18V4z"></path>
		</symbol>
	
		<symbol id="icon-justifyCenter" viewBox="0 0 24 24">
			<path d="M7 15v2h10v-2H7zm-4 6h18v-2H3v2zm0-8h18v-2H3v2zm4-6v2h10V7H7zM3 3v2h18V3H3z"></path>
		</symbol>
	
		<symbol id="icon-justifyFull" viewBox="0 0 24 24">
			<path d="M3 21h18v-2H3v2zm0-4h18v-2H3v2zm0-4h18v-2H3v2zm0-4h18V7H3v2zm0-6v2h18V3H3z"></path>
		</symbol>
	
		<symbol id="icon-justifyLeft" viewBox="0 0 24 24">
			<path d="M15 15H3v2h12v-2zm0-8H3v2h12V7zM3 13h18v-2H3v2zm0 8h18v-2H3v2zM3 3v2h18V3H3z"></path>
		</symbol>
	
		<symbol id="icon-justifyRight" viewBox="0 0 24 24">
			<path d="M3 21h18v-2H3v2zm6-4h12v-2H9v2zm-6-4h18v-2H3v2zm6-4h12V7H9v2zM3 3v2h18V3H3z"></path>
		</symbol>
	
		<symbol id="icon-text" viewBox="0 0 24 24">
			<path d="M5 17v2h14v-2H5zm4.5-4.2h5l.9 2.2h2.1L12.75 4h-1.5L6.5 15h2.1l.9-2.2zM12 5.98L13.87 11h-3.74L12 5.98z"></path>
		</symbol>
	
		<symbol id="icon-underline" viewBox="0 0 24 24">
			<path d="M12 17c3.31 0 6-2.69 6-6V3h-2.5v8c0 1.93-1.57 3.5-3.5 3.5S8.5 12.93 8.5 11V3H6v8c0 3.31 2.69 6 6 6zm-7 2v2h14v-2H5z"></path>
		</symbol>
	
</svg>
