<?xml version="1.0" encoding="utf-8"?>
<!-- Generator: Adobe Illustrator 19.1.0, SVG Export Plug-In . SVG Version: 6.00 Build 0)  -->
<svg version="1.1" xmlns="http://www.w3.org/2000/svg" xmlns:xlink="http://www.w3.org/1999/xlink" x="0px" y="0px"
	 width="24px" height="24px" viewBox="0 0 24 24" style="enable-background:new 0 0 24 24;" xml:space="preserve">

	<path d="M20.1,4.3c-2.2,0.2-2.4,0.3-2.4,2.5v10.4c0,2.2,0.2,2.4,2.4,2.5v0.8h-7.4v-0.8c2.3-0.2,2.5-0.3,2.5-2.5v-5.1H6v5.1
				c0,2.2,0.2,2.4,2.4,2.5v0.8H1.2v-0.8c2.1-0.2,2.3-0.3,2.3-2.5V6.8c0-2.2-0.2-2.3-2.4-2.5V3.5h7.2v0.8C6.2,4.5,6,4.6,6,6.8v4.1
				h9.2V6.8c0-2.2-0.2-2.3-2.3-2.5V3.5h7.2V4.3z"/>

	<path d="M22.2,20.5v-2.1h-0.5v-0.6h1.1v2.7H22.2z"/>

</svg>
