<?xml version="1.0" encoding="utf-8"?>
<!-- Generator: Adobe Illustrator 19.1.0, SVG Export Plug-In . SVG Version: 6.00 Build 0)  -->
<svg version="1.1" xmlns="http://www.w3.org/2000/svg" xmlns:xlink="http://www.w3.org/1999/xlink" x="0px" y="0px"
	 width="24px" height="24px" viewBox="0 0 24 24" style="enable-background:new 0 0 24 24;" xml:space="preserve">

	<path d="M19.6,4.3c-2.2,0.2-2.4,0.3-2.4,2.5v10.4c0,2.2,0.2,2.4,2.4,2.5v0.8h-7.4v-0.8c2.3-0.2,2.5-0.3,2.5-2.5v-5.1H5.6v5.1
				c0,2.2,0.2,2.4,2.4,2.5v0.8H0.7v-0.8c2.1-0.2,2.3-0.3,2.3-2.5V6.8c0-2.2-0.2-2.3-2.4-2.5V3.5h7.2v0.8C5.8,4.5,5.6,4.6,5.6,6.8
				v4.1h9.2V6.8c0-2.2-0.2-2.3-2.3-2.5V3.5h7.2V4.3z"/>

	<path d="M21.4,20.5V20c0.1-0.1,0.2-0.1,0.3-0.3c0.1-0.1,0.2-0.2,0.3-0.3c0.1-0.1,0.1-0.1,0.2-0.2c0.1-0.1,0.2-0.2,0.2-0.2
			c0.1-0.2,0.2-0.3,0.2-0.4c0-0.2-0.1-0.3-0.3-0.3c-0.1,0-0.2,0-0.2,0.1c-0.1,0.1-0.1,0.2-0.1,0.3h-0.6c0-0.3,0.1-0.5,0.3-0.7
			c0.2-0.2,0.4-0.2,0.7-0.2s0.5,0.1,0.7,0.2c0.2,0.2,0.2,0.4,0.2,0.6c0,0.2,0,0.3-0.1,0.5c0,0.1-0.1,0.1-0.1,0.2
			c0,0.1-0.1,0.1-0.2,0.2s-0.1,0.1-0.2,0.2c0,0-0.1,0.1-0.2,0.2c-0.1,0.1-0.2,0.1-0.2,0.2h1v0.5H21.4z"/>

</svg>
