<?xml version="1.0" encoding="utf-8"?>
<!-- Generator: Adobe Illustrator 19.1.0, SVG Export Plug-In . SVG Version: 6.00 Build 0)  -->
<svg width="24px" height="24px" viewBox="0 0 24 24" >
<path d="M12.4,2.5c2.1,0,3.9,0.3,5.1,1.2c1.2,0.9,2,2.2,2,4.2c0,3.8-2.9,5.7-5.8,6c-0.5,0.1-1.1,0.1-1.4,0L10,13.3v4.5
	c0,2.5,0.3,2.7,3,2.9v0.8H4.6v-0.8c2.4-0.2,2.6-0.4,2.6-2.9V6.3c0-2.6-0.3-2.7-2.5-2.9V2.5H12.4z M10,12.3c0.4,0.1,1.2,0.4,2.1,0.4
	c1.9,0,4.2-1,4.2-4.7c0-3.2-2-4.5-4.4-4.5c-0.8,0-1.4,0.2-1.6,0.4C10.1,4,10,4.4,10,5.2V12.3z"/>
</svg>
